<svg xmlns="http://www.w3.org/2000/svg" xmlns:xlink="http://www.w3.org/1999/xlink" width="96" zoomAndPan="magnify" viewBox="0 0 72 92.249997" height="123" preserveAspectRatio="xMidYMid meet" version="1.0"><defs><clipPath id="51a0818f8d"><path d="M 18 36 L 53 36 L 53 53 L 18 53 Z M 18 36 " clip-rule="nonzero"/></clipPath><clipPath id="646e4430df"><path d="M 0.289062 35.515625 L 0.289062 55.648438 C 0.289062 65.066406 4.03125 74.097656 10.691406 80.761719 C 17.351562 87.421875 26.386719 91.160156 35.804688 91.160156 C 45.226562 91.160156 54.257812 87.421875 60.917969 80.761719 C 67.578125 74.097656 71.320312 65.066406 71.320312 55.648438 L 71.320312 35.515625 C 71.320312 26.097656 67.578125 17.0625 60.917969 10.402344 C 54.257812 3.742188 45.226562 0 35.804688 0 C 26.386719 0 17.351562 3.742188 10.691406 10.402344 C 4.03125 17.0625 0.289062 26.097656 0.289062 35.515625 Z M 0.289062 35.515625 " clip-rule="nonzero"/></clipPath><clipPath id="8ab04b8aa5"><path d="M 18 27 L 53 27 L 53 36 L 18 36 Z M 18 27 " clip-rule="nonzero"/></clipPath><clipPath id="24dd334836"><path d="M 0.289062 35.515625 L 0.289062 55.648438 C 0.289062 65.066406 4.03125 74.097656 10.691406 80.761719 C 17.351562 87.421875 26.386719 91.160156 35.804688 91.160156 C 45.226562 91.160156 54.257812 87.421875 60.917969 80.761719 C 67.578125 74.097656 71.320312 65.066406 71.320312 55.648438 L 71.320312 35.515625 C 71.320312 26.097656 67.578125 17.0625 60.917969 10.402344 C 54.257812 3.742188 45.226562 0 35.804688 0 C 26.386719 0 17.351562 3.742188 10.691406 10.402344 C 4.03125 17.0625 0.289062 26.097656 0.289062 35.515625 Z M 0.289062 35.515625 " clip-rule="nonzero"/></clipPath><clipPath id="81fb817a97"><path d="M 1 0 L 36 0 L 36 28 L 1 28 Z M 1 0 " clip-rule="nonzero"/></clipPath><clipPath id="35f3de04d3"><path d="M 0.289062 35.515625 L 0.289062 55.648438 C 0.289062 65.066406 4.03125 74.097656 10.691406 80.761719 C 17.351562 87.421875 26.386719 91.160156 35.804688 91.160156 C 45.226562 91.160156 54.257812 87.421875 60.917969 80.761719 C 67.578125 74.097656 71.320312 65.066406 71.320312 55.648438 L 71.320312 35.515625 C 71.320312 26.097656 67.578125 17.0625 60.917969 10.402344 C 54.257812 3.742188 45.226562 0 35.804688 0 C 26.386719 0 17.351562 3.742188 10.691406 10.402344 C 4.03125 17.0625 0.289062 26.097656 0.289062 35.515625 Z M 0.289062 35.515625 " clip-rule="nonzero"/></clipPath><clipPath id="70cacfe3fc"><path d="M 0.378906 0 L 71.230469 0 L 71.230469 91.09375 L 0.378906 91.09375 Z M 0.378906 0 " clip-rule="nonzero"/></clipPath><clipPath id="e823caff16"><path d="M 0.289062 35.515625 L 0.289062 55.648438 C 0.289062 65.066406 4.03125 74.097656 10.691406 80.761719 C 17.351562 87.421875 26.386719 91.160156 35.804688 91.160156 C 45.226562 91.160156 54.257812 87.421875 60.917969 80.761719 C 67.578125 74.097656 71.320312 65.066406 71.320312 55.648438 L 71.320312 35.515625 C 71.320312 26.097656 67.578125 17.0625 60.917969 10.402344 C 54.257812 3.742188 45.226562 0 35.804688 0 C 26.386719 0 17.351562 3.742188 10.691406 10.402344 C 4.03125 17.0625 0.289062 26.097656 0.289062 35.515625 Z M 0.289062 35.515625 " clip-rule="nonzero"/></clipPath><clipPath id="97775bee7e"><path d="M 18.597656 27.125 L 22.632812 27.125 L 22.632812 42.234375 L 18.597656 42.234375 Z M 18.597656 27.125 " clip-rule="nonzero"/></clipPath><clipPath id="43fef2d409"><path d="M 22.605469 28.113281 C 20.71875 31.203125 20.484375 32.328125 20.328125 33.21875 C 20.195312 33.976562 20.117188 34.527344 20.144531 35.3125 C 20.171875 36.332031 20.300781 37.773438 20.613281 38.820312 C 20.902344 39.761719 21.820312 40.808594 21.820312 41.386719 C 21.820312 41.699219 21.664062 41.933594 21.503906 42.066406 C 21.375 42.195312 21.191406 42.25 21.035156 42.222656 C 20.796875 42.195312 20.351562 41.882812 20.273438 41.648438 C 20.195312 41.4375 20.273438 41.097656 20.433594 40.914062 C 20.5625 40.757812 20.902344 40.625 21.113281 40.652344 C 21.347656 40.679688 21.636719 40.863281 21.742188 41.070312 C 21.84375 41.253906 21.820312 41.621094 21.742188 41.804688 C 21.664062 41.960938 21.53125 42.09375 21.375 42.171875 C 21.164062 42.222656 20.851562 42.25 20.613281 42.117188 C 20.273438 41.910156 19.933594 41.332031 19.648438 40.679688 C 19.175781 39.578125 18.703125 37.355469 18.625 35.886719 C 18.574219 34.65625 18.78125 33.53125 19.019531 32.484375 C 19.253906 31.515625 19.542969 30.625 19.960938 29.761719 C 20.40625 28.871094 21.136719 27.433594 21.6875 27.199219 C 21.976562 27.066406 22.394531 27.199219 22.550781 27.355469 C 22.683594 27.511719 22.605469 28.113281 22.605469 28.113281 " clip-rule="nonzero"/></clipPath><clipPath id="79a82dc95b"><path d="M 50.324219 31.507812 L 52.761719 31.507812 L 52.761719 40.097656 L 50.324219 40.097656 Z M 50.324219 31.507812 " clip-rule="nonzero"/></clipPath><clipPath id="c6d6f950e2"><path d="M 52.183594 31.933594 C 52.996094 35.417969 52.785156 36.882812 52.5 37.878906 C 52.261719 38.6875 51.894531 39.761719 51.476562 39.996094 C 51.191406 40.15625 50.71875 40.078125 50.5625 39.894531 C 50.378906 39.734375 50.300781 39.1875 50.402344 38.976562 C 50.507812 38.769531 50.796875 38.609375 51.007812 38.585938 C 51.214844 38.558594 51.53125 38.714844 51.6875 38.847656 C 51.792969 38.976562 51.871094 39.132812 51.84375 39.316406 C 51.84375 39.5 51.714844 39.839844 51.53125 39.972656 C 51.371094 40.078125 51.03125 40.128906 50.824219 40.078125 C 50.640625 39.996094 50.402344 39.839844 50.351562 39.554688 C 50.167969 38.847656 51.292969 36.542969 51.453125 35.546875 C 51.53125 34.945312 51.582031 34.65625 51.53125 34.132812 C 51.453125 33.53125 50.769531 32.539062 50.902344 32.09375 C 50.980469 31.804688 51.347656 31.515625 51.554688 31.515625 C 51.765625 31.492188 52.183594 31.933594 52.183594 31.933594 " clip-rule="nonzero"/></clipPath><clipPath id="b3a347b913"><path d="M 19.558594 31.109375 L 51.804688 31.109375 L 51.804688 42.027344 L 19.558594 42.027344 Z M 19.558594 31.109375 " clip-rule="nonzero"/></clipPath><clipPath id="d5c56d8569"><path d="M 47.367188 41.046875 C 49.042969 35.992188 48.910156 33.246094 49.382812 32.640625 C 49.566406 32.433594 49.855469 32.40625 50.039062 32.433594 C 50.246094 32.460938 50.457031 32.589844 50.585938 32.824219 C 50.875 33.324219 50.980469 34.605469 50.953125 35.546875 C 50.902344 36.570312 50.640625 38.21875 50.222656 38.742188 C 49.984375 39.003906 49.671875 39.109375 49.4375 39.082031 C 49.226562 39.054688 48.992188 38.898438 48.886719 38.664062 C 48.703125 38.21875 48.886719 37.222656 49.042969 36.4375 C 49.253906 35.523438 49.671875 33.820312 50.140625 33.453125 C 50.402344 33.269531 50.71875 33.296875 50.953125 33.375 C 51.191406 33.453125 51.398438 33.664062 51.53125 33.949219 C 51.738281 34.316406 51.792969 35.050781 51.792969 35.574219 C 51.792969 36.046875 51.816406 36.59375 51.554688 36.882812 C 51.320312 37.195312 50.613281 37.511719 50.324219 37.378906 C 50.011719 37.25 49.90625 36.570312 49.855469 35.992188 C 49.75 35.15625 49.75 33.347656 50.117188 32.824219 C 50.351562 32.539062 50.824219 32.378906 51.058594 32.433594 C 51.269531 32.484375 51.453125 32.722656 51.554688 32.957031 C 51.6875 33.246094 51.6875 33.609375 51.632812 34.109375 C 51.582031 35.023438 51.242188 37.195312 50.847656 37.929688 C 50.640625 38.296875 50.402344 38.585938 50.140625 38.636719 C 49.90625 38.6875 49.539062 38.585938 49.355469 38.375 C 49.070312 38.007812 48.910156 36.648438 49.175781 36.253906 C 49.332031 36.019531 50.011719 35.863281 50.117188 35.964844 C 50.273438 36.175781 48.992188 38.242188 48.519531 38.664062 C 48.285156 38.847656 48.046875 38.925781 47.839844 38.898438 C 47.628906 38.871094 47.367188 38.769531 47.261719 38.507812 C 46.976562 37.773438 47.945312 34.054688 48.363281 33.269531 C 48.519531 32.984375 48.675781 32.824219 48.859375 32.800781 C 49.121094 32.773438 49.59375 32.984375 49.75 33.21875 C 49.90625 33.53125 49.777344 34.003906 49.644531 34.554688 C 49.460938 35.523438 48.675781 37.800781 48.308594 38.375 C 48.179688 38.585938 48.101562 38.6875 47.945312 38.742188 C 47.761719 38.820312 47.421875 38.792969 47.261719 38.6875 C 47.078125 38.585938 46.976562 38.402344 46.898438 38.113281 C 46.765625 37.457031 46.949219 35.234375 47.316406 34.605469 C 47.523438 34.265625 47.890625 34.03125 48.152344 34.054688 C 48.386719 34.082031 48.675781 34.316406 48.78125 34.632812 C 48.964844 35.3125 48.125 37.878906 47.65625 38.507812 C 47.445312 38.792969 47.183594 39.003906 46.949219 38.976562 C 46.714844 38.949219 46.398438 38.6875 46.242188 38.324219 C 45.929688 37.5625 45.980469 34.945312 46.398438 34.292969 C 46.582031 33.949219 47 33.742188 47.238281 33.792969 C 47.5 33.847656 47.761719 34.1875 47.839844 34.578125 C 48.023438 35.441406 47.445312 38.347656 46.949219 39.109375 C 46.714844 39.449219 46.371094 39.65625 46.136719 39.632812 C 45.902344 39.632812 45.667969 39.394531 45.507812 39.082031 C 45.167969 38.269531 45.089844 35.023438 45.429688 34.132812 C 45.585938 33.742188 45.824219 33.453125 46.085938 33.402344 C 46.292969 33.347656 46.6875 33.53125 46.816406 33.792969 C 47.027344 34.1875 46.738281 35.101562 46.609375 35.808594 C 46.425781 36.621094 46.007812 37.824219 45.746094 38.324219 C 45.613281 38.585938 45.507812 38.714844 45.324219 38.820312 C 45.195312 38.898438 44.984375 38.925781 44.828125 38.871094 C 44.617188 38.792969 44.410156 38.585938 44.277344 38.242188 C 43.992188 37.484375 43.964844 34.683594 44.277344 33.949219 C 44.410156 33.609375 44.644531 33.375 44.882812 33.347656 C 45.117188 33.324219 45.5625 33.585938 45.691406 33.871094 C 45.875 34.1875 45.691406 34.710938 45.585938 35.261719 C 45.40625 36.070312 45.039062 37.746094 44.617188 38.21875 C 44.382812 38.480469 44.070312 38.585938 43.859375 38.558594 C 43.675781 38.558594 43.519531 38.425781 43.414062 38.296875 C 43.257812 38.085938 43.207031 37.824219 43.152344 37.40625 C 43.046875 36.515625 42.867188 33.769531 43.207031 33.113281 C 43.335938 32.878906 43.570312 32.746094 43.78125 32.746094 C 43.964844 32.722656 44.253906 32.800781 44.410156 32.984375 C 44.617188 33.246094 44.617188 33.871094 44.59375 34.476562 C 44.566406 35.417969 44.382812 37.484375 43.9375 38.035156 C 43.703125 38.324219 43.285156 38.480469 43.046875 38.402344 C 42.839844 38.347656 42.683594 38.085938 42.550781 37.746094 C 42.289062 36.882812 42.316406 33.53125 42.683594 32.929688 C 42.785156 32.746094 42.96875 32.722656 43.152344 32.695312 C 43.335938 32.695312 43.652344 32.746094 43.78125 32.929688 C 43.992188 33.21875 43.9375 33.792969 43.886719 34.371094 C 43.808594 35.261719 43.414062 37.171875 43.128906 37.695312 C 43.023438 37.902344 42.917969 38.007812 42.761719 38.0625 C 42.578125 38.140625 42.261719 38.140625 42.078125 38.035156 C 41.898438 37.929688 41.792969 37.71875 41.714844 37.457031 C 41.582031 36.960938 41.714844 36.046875 41.714844 35.234375 C 41.738281 34.265625 41.636719 32.667969 41.816406 32.039062 C 41.921875 31.777344 42.027344 31.59375 42.210938 31.492188 C 42.367188 31.386719 42.707031 31.386719 42.890625 31.492188 C 43.046875 31.570312 43.207031 31.777344 43.257812 32.039062 C 43.390625 32.460938 43.285156 33.140625 43.207031 33.847656 C 43.074219 34.839844 42.785156 36.910156 42.339844 37.484375 C 42.132812 37.746094 41.84375 37.902344 41.609375 37.878906 C 41.398438 37.851562 41.164062 37.667969 41.007812 37.355469 C 40.640625 36.621094 40.324219 33.269531 40.640625 33.085938 C 40.796875 32.984375 41.085938 33.480469 41.320312 33.507812 C 41.53125 33.53125 41.898438 33.140625 41.976562 33.21875 C 42.105469 33.324219 41.898438 33.871094 41.816406 34.371094 C 41.636719 35.261719 41.347656 37.5625 40.929688 38.113281 C 40.769531 38.347656 40.5625 38.453125 40.351562 38.453125 C 40.167969 38.453125 39.90625 38.402344 39.75 38.164062 C 39.359375 37.5625 39.097656 33.898438 39.460938 33.664062 C 39.621094 33.558594 39.933594 34.054688 40.167969 34.03125 C 40.40625 34.003906 40.746094 33.375 40.851562 33.425781 C 40.953125 33.480469 40.851562 33.871094 40.796875 34.238281 C 40.667969 35.15625 40.246094 38.007812 39.75 38.769531 C 39.515625 39.109375 39.226562 39.316406 38.964844 39.316406 C 38.753906 39.292969 38.492188 39.054688 38.363281 38.769531 C 38.128906 38.347656 38.179688 37.539062 38.152344 36.726562 C 38.101562 35.546875 37.96875 33.164062 38.230469 32.378906 C 38.335938 32.039062 38.519531 31.804688 38.703125 31.726562 C 38.886719 31.671875 39.199219 31.726562 39.359375 31.832031 C 39.515625 31.960938 39.59375 32.171875 39.644531 32.433594 C 39.722656 32.878906 39.671875 33.664062 39.566406 34.394531 C 39.460938 35.285156 39.304688 36.699219 38.9375 37.433594 C 38.675781 37.957031 38.230469 38.558594 37.945312 38.585938 C 37.734375 38.585938 37.5 38.347656 37.34375 38.035156 C 37 37.300781 36.84375 34.476562 36.976562 33.714844 C 37.027344 33.402344 37.132812 33.21875 37.289062 33.113281 C 37.445312 33.007812 37.761719 32.957031 37.945312 33.007812 C 38.128906 33.085938 38.308594 33.269531 38.414062 33.507812 C 38.546875 33.949219 38.285156 34.894531 38.128906 35.679688 C 37.96875 36.671875 37.785156 38.453125 37.421875 38.949219 C 37.261719 39.1875 37.027344 39.292969 36.84375 39.292969 C 36.636719 39.292969 36.398438 39.238281 36.242188 39.003906 C 35.796875 38.347656 35.71875 34.710938 35.929688 33.871094 C 36.007812 33.558594 36.113281 33.402344 36.269531 33.296875 C 36.453125 33.191406 36.765625 33.164062 36.949219 33.269531 C 37.132812 33.347656 37.289062 33.480469 37.367188 33.792969 C 37.605469 34.65625 37.105469 38.585938 36.636719 39.421875 C 36.476562 39.734375 36.242188 39.917969 36.03125 39.917969 C 35.796875 39.945312 35.457031 39.710938 35.273438 39.371094 C 34.855469 38.609375 34.59375 35.703125 34.777344 34.867188 C 34.855469 34.527344 35.011719 34.265625 35.222656 34.1875 C 35.40625 34.082031 35.71875 34.132812 35.902344 34.238281 C 36.058594 34.34375 36.164062 34.527344 36.242188 34.816406 C 36.398438 35.625 36.03125 38.714844 35.613281 39.449219 C 35.429688 39.761719 35.195312 39.972656 34.960938 39.972656 C 34.722656 39.972656 34.382812 39.734375 34.199219 39.371094 C 33.703125 38.402344 33.597656 33.949219 33.886719 32.929688 C 33.992188 32.5625 34.121094 32.355469 34.332031 32.25 C 34.515625 32.171875 34.828125 32.222656 34.984375 32.328125 C 35.144531 32.433594 35.246094 32.617188 35.300781 32.902344 C 35.40625 33.507812 35.089844 34.816406 34.933594 35.808594 C 34.75 36.910156 34.644531 38.636719 34.253906 39.238281 C 34.070312 39.5 33.808594 39.683594 33.597656 39.683594 C 33.363281 39.65625 33.101562 39.421875 32.917969 39.054688 C 32.472656 38.191406 32.132812 34.789062 32.421875 33.871094 C 32.527344 33.507812 32.789062 33.21875 33.023438 33.164062 C 33.257812 33.113281 33.597656 33.269531 33.753906 33.53125 C 34.070312 34.03125 33.886719 35.730469 33.753906 36.621094 C 33.652344 37.328125 33.519531 38.269531 33.179688 38.453125 C 32.945312 38.585938 32.472656 38.453125 32.265625 38.242188 C 32 37.957031 31.976562 37.300781 31.898438 36.671875 C 31.765625 35.652344 31.453125 33.402344 31.714844 32.746094 C 31.820312 32.484375 31.976562 32.328125 32.183594 32.277344 C 32.367188 32.199219 32.683594 32.277344 32.839844 32.378906 C 32.96875 32.484375 33.050781 32.589844 33.128906 32.824219 C 33.3125 33.53125 33.152344 36.671875 32.867188 37.511719 C 32.734375 37.878906 32.578125 38.113281 32.367188 38.191406 C 32.183594 38.269531 31.871094 38.191406 31.714844 38.085938 C 31.582031 38.007812 31.503906 37.902344 31.425781 37.667969 C 31.191406 36.960938 30.796875 33.769531 31.164062 32.984375 C 31.320312 32.617188 31.6875 32.378906 31.921875 32.40625 C 32.183594 32.40625 32.472656 32.722656 32.605469 33.085938 C 32.890625 33.871094 32.472656 36.410156 32.316406 37.277344 C 32.238281 37.695312 32.210938 37.957031 32.054688 38.164062 C 31.921875 38.347656 31.6875 38.53125 31.503906 38.53125 C 31.242188 38.53125 30.953125 38.296875 30.71875 37.957031 C 30.222656 37.144531 29.621094 33.925781 29.75 33.035156 C 29.828125 32.667969 29.960938 32.378906 30.167969 32.300781 C 30.40625 32.222656 30.902344 32.300781 31.085938 32.5625 C 31.53125 33.164062 31.085938 36.332031 30.875 37.039062 C 30.796875 37.277344 30.746094 37.378906 30.613281 37.484375 C 30.457031 37.617188 30.144531 37.695312 29.960938 37.640625 C 29.722656 37.5625 29.566406 37.328125 29.410156 36.988281 C 29.070312 36.125 28.496094 32.667969 28.914062 31.933594 C 29.097656 31.621094 29.542969 31.492188 29.804688 31.542969 C 30.011719 31.59375 30.195312 31.832031 30.300781 32.199219 C 30.5625 33.113281 30.328125 36.726562 29.855469 37.5625 C 29.644531 37.902344 29.28125 38.113281 29.042969 38.085938 C 28.835938 38.0625 28.597656 37.851562 28.441406 37.539062 C 28.050781 36.699219 27.890625 33.140625 28.207031 32.199219 C 28.363281 31.804688 28.597656 31.515625 28.835938 31.464844 C 29.070312 31.4375 29.460938 31.648438 29.644531 31.988281 C 30.066406 32.824219 29.777344 36.570312 29.382812 37.40625 C 29.226562 37.71875 28.992188 37.929688 28.757812 37.929688 C 28.519531 37.957031 28.179688 37.71875 27.972656 37.378906 C 27.527344 36.59375 27.183594 33.085938 27.605469 32.460938 C 27.761719 32.222656 28.179688 32.144531 28.390625 32.222656 C 28.625 32.277344 28.78125 32.511719 28.914062 32.878906 C 29.199219 33.769531 29.121094 37.40625 28.730469 38.21875 C 28.597656 38.558594 28.363281 38.742188 28.128906 38.769531 C 27.890625 38.769531 27.578125 38.558594 27.367188 38.21875 C 26.84375 37.40625 26.320312 33.949219 26.558594 33.007812 C 26.636719 32.617188 26.871094 32.277344 27.105469 32.222656 C 27.34375 32.171875 27.789062 32.355469 27.945312 32.695312 C 28.363281 33.480469 27.8125 37.355469 27.265625 38.164062 C 27.027344 38.507812 26.660156 38.636719 26.425781 38.636719 C 26.242188 38.609375 26.085938 38.453125 25.929688 38.191406 C 25.511719 37.511719 25.167969 34.632812 25.089844 33.6875 C 25.039062 33.296875 24.988281 33.0625 25.089844 32.824219 C 25.195312 32.640625 25.40625 32.460938 25.613281 32.40625 C 25.796875 32.355469 26.113281 32.460938 26.242188 32.589844 C 26.375 32.695312 26.425781 32.800781 26.480469 33.0625 C 26.609375 33.714844 26.480469 36.226562 26.269531 36.933594 C 26.191406 37.25 26.085938 37.433594 25.957031 37.539062 C 25.796875 37.640625 25.613281 37.695312 25.429688 37.667969 C 25.25 37.617188 25.039062 37.511719 24.882812 37.277344 C 24.488281 36.671875 23.835938 34.210938 24.070312 33.507812 C 24.203125 33.164062 24.566406 32.878906 24.804688 32.851562 C 25.039062 32.851562 25.351562 33.113281 25.535156 33.507812 C 25.980469 34.449219 25.824219 38.53125 25.613281 39.472656 C 25.535156 39.789062 25.457031 39.945312 25.300781 40.078125 C 25.144531 40.179688 24.828125 40.234375 24.644531 40.15625 C 24.464844 40.101562 24.332031 39.945312 24.203125 39.65625 C 23.808594 38.847656 23.3125 35.078125 23.597656 34.109375 C 23.730469 33.714844 23.992188 33.402344 24.226562 33.375 C 24.464844 33.347656 24.804688 33.558594 25.039062 33.898438 C 25.589844 34.683594 26.269531 38.191406 26.21875 38.949219 C 26.191406 39.210938 26.113281 39.316406 25.980469 39.421875 C 25.851562 39.554688 25.535156 39.683594 25.351562 39.632812 C 25.117188 39.578125 24.90625 39.371094 24.75 39.054688 C 24.410156 38.269531 24.203125 35.339844 24.488281 34.5 C 24.621094 34.132812 24.882812 33.820312 25.144531 33.792969 C 25.378906 33.769531 25.71875 33.976562 25.929688 34.34375 C 26.453125 35.207031 26.820312 39.1875 26.660156 40.101562 C 26.609375 40.417969 26.53125 40.601562 26.375 40.703125 C 26.269531 40.808594 26.058594 40.886719 25.902344 40.863281 C 25.691406 40.808594 25.484375 40.652344 25.273438 40.339844 C 24.699219 39.472656 23.519531 35.441406 23.679688 34.421875 C 23.757812 34.003906 23.964844 33.6875 24.203125 33.609375 C 24.410156 33.53125 24.777344 33.609375 24.988281 33.898438 C 25.484375 34.605469 25.429688 38.925781 25.222656 39.710938 C 25.144531 39.945312 25.089844 40.050781 24.960938 40.128906 C 24.804688 40.234375 24.488281 40.285156 24.332031 40.234375 C 24.148438 40.179688 24.019531 40.050781 23.886719 39.761719 C 23.46875 38.976562 22.605469 35.128906 22.789062 34.210938 C 22.867188 33.871094 22.996094 33.636719 23.207031 33.558594 C 23.414062 33.480469 23.835938 33.585938 24.042969 33.847656 C 24.464844 34.476562 24.175781 37.800781 23.808594 38.558594 C 23.652344 38.871094 23.414062 39.054688 23.179688 39.054688 C 22.972656 39.082031 22.710938 38.949219 22.5 38.664062 C 22.027344 38.007812 21.296875 35.050781 21.558594 34.316406 C 21.664062 34.003906 21.976562 33.820312 22.1875 33.820312 C 22.421875 33.792969 22.789062 34.054688 22.945312 34.394531 C 23.3125 35.101562 23.207031 37.824219 22.945312 38.53125 C 22.839844 38.792969 22.683594 38.949219 22.5 39.03125 C 22.34375 39.109375 22.132812 39.109375 21.976562 39.03125 C 21.792969 38.949219 21.664062 38.792969 21.53125 38.53125 C 21.136719 37.773438 20.457031 34.683594 20.589844 33.792969 C 20.640625 33.425781 20.796875 33.164062 20.980469 33.0625 C 21.191406 32.957031 21.636719 33.0625 21.820312 33.191406 C 21.976562 33.296875 22.003906 33.402344 22.054688 33.664062 C 22.210938 34.34375 22.34375 37.09375 21.949219 37.71875 C 21.765625 37.980469 21.425781 38.140625 21.21875 38.113281 C 20.980469 38.0625 20.746094 37.851562 20.5625 37.539062 C 20.222656 36.882812 19.910156 34.605469 20.039062 33.925781 C 20.089844 33.636719 20.222656 33.453125 20.378906 33.347656 C 20.5625 33.21875 20.902344 33.21875 21.085938 33.296875 C 21.269531 33.375 21.425781 33.558594 21.503906 33.847656 C 21.714844 34.421875 21.714844 36.332031 21.398438 36.910156 C 21.21875 37.25 20.824219 37.511719 20.5625 37.484375 C 20.351562 37.484375 20.089844 37.25 19.933594 36.910156 C 19.621094 36.253906 19.4375 33.871094 19.777344 33.296875 C 19.933594 33.007812 20.300781 32.824219 20.535156 32.878906 C 20.796875 32.902344 21.269531 33.480469 21.21875 33.609375 C 21.136719 33.792969 19.777344 33.820312 19.699219 33.636719 C 19.648438 33.507812 20.117188 32.957031 20.351562 32.878906 C 20.5625 32.824219 20.875 32.984375 21.007812 33.113281 C 21.136719 33.246094 21.296875 33.53125 21.21875 33.609375 C 21.085938 33.792969 19.855469 33.820312 19.699219 33.585938 C 19.515625 33.324219 20.011719 32.511719 20.195312 32.117188 C 20.328125 31.855469 20.40625 31.59375 20.613281 31.4375 C 20.875 31.253906 21.347656 31.125 21.664062 31.148438 C 21.949219 31.175781 22.34375 31.308594 22.472656 31.492188 C 22.605469 31.699219 22.421875 32.378906 22.421875 32.378906 C 22.449219 32.378906 22.550781 31.699219 22.550781 31.699219 C 22.550781 31.699219 22.550781 32.25 22.394531 32.40625 C 22.265625 32.5625 21.949219 32.722656 21.742188 32.667969 C 21.503906 32.617188 21.113281 32.277344 21.058594 32.039062 C 21.007812 31.832031 21.136719 31.492188 21.296875 31.359375 C 21.453125 31.203125 21.765625 31.125 21.976562 31.148438 C 22.1875 31.203125 22.472656 31.410156 22.527344 31.621094 C 22.605469 31.855469 22.472656 32.355469 22.289062 32.511719 C 22.132812 32.667969 21.742188 32.746094 21.582031 32.640625 C 21.347656 32.484375 21.164062 31.515625 21.347656 31.308594 C 21.480469 31.148438 22.160156 31.175781 22.34375 31.359375 C 22.527344 31.542969 22.578125 32.222656 22.421875 32.378906 C 22.316406 32.484375 22.003906 32.25 21.820312 32.355469 C 21.558594 32.511719 21.558594 33.347656 21.21875 33.585938 C 20.851562 33.792969 19.828125 33.820312 19.699219 33.636719 C 19.621094 33.53125 19.75 33.269531 19.882812 33.140625 C 20.039062 32.984375 20.484375 32.824219 20.71875 32.929688 C 20.929688 33.007812 21.296875 33.480469 21.21875 33.609375 C 21.136719 33.792969 19.777344 33.820312 19.699219 33.636719 C 19.648438 33.507812 20.117188 32.902344 20.351562 32.878906 C 20.613281 32.851562 21.007812 33.085938 21.191406 33.425781 C 21.558594 34.054688 21.714844 36.28125 21.398438 36.910156 C 21.242188 37.25 20.824219 37.511719 20.5625 37.484375 C 20.351562 37.484375 20.066406 37.222656 19.933594 36.910156 C 19.671875 36.308594 19.777344 34.34375 20.066406 33.769531 C 20.222656 33.453125 20.511719 33.246094 20.71875 33.21875 C 20.957031 33.21875 21.269531 33.375 21.453125 33.664062 C 21.871094 34.265625 22.265625 36.621094 22.027344 37.355469 C 21.925781 37.746094 21.636719 38.0625 21.375 38.113281 C 21.136719 38.140625 20.746094 37.878906 20.5625 37.539062 C 20.222656 36.855469 20.300781 34.34375 20.589844 33.636719 C 20.71875 33.296875 20.929688 33.035156 21.164062 33.007812 C 21.398438 32.984375 21.765625 33.140625 22.027344 33.480469 C 22.550781 34.238281 23.101562 37.511719 22.972656 38.347656 C 22.917969 38.664062 22.8125 38.847656 22.65625 38.949219 C 22.5 39.054688 22.160156 39.109375 21.976562 39.03125 C 21.765625 38.949219 21.609375 38.6875 21.503906 38.347656 C 21.269531 37.589844 21.21875 35 21.558594 34.316406 C 21.6875 34.003906 21.976562 33.820312 22.1875 33.820312 C 22.421875 33.792969 22.683594 33.949219 22.890625 34.210938 C 23.363281 34.867188 24.042969 37.617188 23.835938 38.375 C 23.730469 38.742188 23.414062 39.003906 23.179688 39.054688 C 23.023438 39.109375 22.839844 39.03125 22.710938 38.925781 C 22.578125 38.820312 22.472656 38.636719 22.421875 38.347656 C 22.289062 37.589844 22.472656 34.761719 22.8125 34.054688 C 22.945312 33.742188 23.152344 33.558594 23.363281 33.53125 C 23.546875 33.480469 23.835938 33.585938 24.042969 33.847656 C 24.59375 34.578125 25.328125 38.636719 25.222656 39.554688 C 25.195312 39.839844 25.089844 40.023438 24.960938 40.128906 C 24.804688 40.234375 24.488281 40.3125 24.332031 40.234375 C 24.121094 40.15625 23.964844 39.945312 23.859375 39.605469 C 23.546875 38.714844 23.363281 35.128906 23.679688 34.238281 C 23.808594 33.898438 23.992188 33.664062 24.203125 33.609375 C 24.410156 33.558594 24.726562 33.636719 24.988281 33.898438 C 25.667969 34.632812 26.742188 39.132812 26.660156 40.101562 C 26.636719 40.417969 26.53125 40.601562 26.375 40.703125 C 26.269531 40.808594 26.058594 40.886719 25.902344 40.863281 C 25.691406 40.808594 25.457031 40.679688 25.273438 40.339844 C 24.777344 39.472656 24.203125 35.496094 24.488281 34.5 C 24.621094 34.109375 24.882812 33.820312 25.144531 33.792969 C 25.378906 33.769531 25.746094 33.976562 25.929688 34.34375 C 26.347656 35.078125 26.347656 38.21875 26.21875 38.949219 C 26.164062 39.210938 26.113281 39.316406 25.980469 39.421875 C 25.851562 39.554688 25.535156 39.683594 25.351562 39.632812 C 25.144531 39.605469 24.988281 39.472656 24.804688 39.210938 C 24.332031 38.480469 23.390625 35.023438 23.597656 34.109375 C 23.703125 33.714844 23.992188 33.402344 24.226562 33.375 C 24.464844 33.347656 24.828125 33.558594 25.039062 33.898438 C 25.511719 34.65625 25.691406 37.617188 25.640625 38.714844 C 25.589844 39.316406 25.535156 39.867188 25.300781 40.078125 C 25.144531 40.207031 24.828125 40.234375 24.644531 40.15625 C 24.464844 40.101562 24.304688 39.945312 24.203125 39.65625 C 23.835938 38.792969 23.730469 34.476562 24.070312 33.507812 C 24.203125 33.164062 24.410156 32.929688 24.621094 32.878906 C 24.882812 32.851562 25.273438 33.035156 25.511719 33.324219 C 25.957031 33.925781 26.375 36.253906 26.269531 36.933594 C 26.21875 37.25 26.113281 37.433594 25.957031 37.539062 C 25.746094 37.640625 25.300781 37.640625 25.117188 37.539062 C 24.933594 37.433594 24.882812 37.222656 24.804688 36.933594 C 24.644531 36.203125 24.726562 33.714844 25.039062 33.007812 C 25.195312 32.667969 25.378906 32.433594 25.613281 32.40625 C 25.851562 32.378906 26.191406 32.539062 26.425781 32.878906 C 26.976562 33.636719 27.472656 37.171875 27.289062 37.980469 C 27.238281 38.296875 27.082031 38.453125 26.921875 38.558594 C 26.792969 38.636719 26.582031 38.6875 26.425781 38.636719 C 26.21875 38.53125 25.980469 38.242188 25.875 37.851562 C 25.640625 36.933594 26.164062 33.664062 26.558594 32.824219 C 26.714844 32.484375 26.898438 32.277344 27.105469 32.222656 C 27.34375 32.199219 27.707031 32.355469 27.945312 32.695312 C 28.496094 33.480469 29.042969 37.117188 28.757812 38.0625 C 28.652344 38.453125 28.363281 38.714844 28.128906 38.769531 C 27.945312 38.820312 27.65625 38.664062 27.527344 38.53125 C 27.394531 38.402344 27.367188 38.296875 27.34375 38.0625 C 27.210938 37.222656 27.082031 33.140625 27.605469 32.460938 C 27.8125 32.199219 28.179688 32.171875 28.390625 32.222656 C 28.597656 32.277344 28.730469 32.433594 28.886719 32.695312 C 29.226562 33.425781 29.671875 36.410156 29.410156 37.222656 C 29.28125 37.617188 28.964844 37.878906 28.757812 37.929688 C 28.597656 37.980469 28.390625 37.902344 28.257812 37.800781 C 28.101562 37.695312 28.023438 37.511719 27.945312 37.195312 C 27.761719 36.332031 27.839844 32.851562 28.234375 32.039062 C 28.390625 31.699219 28.625 31.492188 28.835938 31.464844 C 29.070312 31.4375 29.4375 31.648438 29.644531 31.988281 C 30.117188 32.824219 30.066406 36.515625 29.882812 37.378906 C 29.804688 37.695312 29.699219 37.851562 29.542969 37.980469 C 29.410156 38.085938 29.199219 38.140625 29.042969 38.085938 C 28.835938 38.007812 28.546875 37.746094 28.414062 37.355469 C 28.128906 36.410156 28.414062 32.722656 28.914062 31.933594 C 29.097656 31.648438 29.382812 31.492188 29.621094 31.515625 C 29.855469 31.515625 30.089844 31.699219 30.273438 32.015625 C 30.71875 32.800781 31.085938 36.226562 30.875 37.039062 C 30.796875 37.328125 30.640625 37.484375 30.457031 37.589844 C 30.328125 37.667969 30.117188 37.695312 29.960938 37.640625 C 29.75 37.539062 29.515625 37.328125 29.410156 36.988281 C 29.175781 36.226562 29.4375 33.585938 29.777344 32.851562 C 29.90625 32.511719 30.117188 32.300781 30.328125 32.25 C 30.5625 32.199219 30.875 32.300781 31.085938 32.5625 C 31.660156 33.269531 32.445312 37.171875 32.132812 38.007812 C 32.027344 38.324219 31.714844 38.507812 31.503906 38.53125 C 31.296875 38.558594 31.007812 38.402344 30.875 38.269531 C 30.746094 38.140625 30.746094 38.035156 30.71875 37.773438 C 30.613281 37.015625 30.71875 33.792969 31.164062 32.984375 C 31.347656 32.617188 31.6875 32.40625 31.921875 32.40625 C 32.160156 32.40625 32.421875 32.617188 32.578125 32.929688 C 32.96875 33.664062 33.101562 36.699219 32.867188 37.511719 C 32.761719 37.878906 32.578125 38.113281 32.367188 38.191406 C 32.183594 38.269531 31.871094 38.191406 31.714844 38.085938 C 31.582031 38.007812 31.503906 37.902344 31.425781 37.667969 C 31.242188 36.960938 31.425781 33.742188 31.6875 32.929688 C 31.765625 32.617188 31.84375 32.433594 32.027344 32.355469 C 32.210938 32.25 32.65625 32.277344 32.839844 32.378906 C 32.996094 32.460938 33.128906 32.800781 33.128906 32.824219 C 33.101562 32.824219 32.917969 32.511719 32.867188 32.539062 C 32.65625 32.617188 33.886719 37.144531 33.414062 37.617188 C 33.152344 37.824219 32.421875 37.695312 32.183594 37.378906 C 31.765625 36.855469 32.105469 34.160156 32.5 33.558594 C 32.65625 33.269531 32.96875 33.140625 33.207031 33.164062 C 33.390625 33.164062 33.597656 33.269531 33.753906 33.53125 C 34.199219 34.265625 34.644531 38.164062 34.304688 39.054688 C 34.148438 39.421875 33.835938 39.65625 33.597656 39.683594 C 33.414062 39.683594 33.128906 39.5 33.023438 39.371094 C 32.917969 39.238281 32.917969 39.132812 32.917969 38.871094 C 32.890625 37.980469 33.492188 33.636719 33.914062 32.773438 C 34.042969 32.460938 34.148438 32.328125 34.332031 32.25 C 34.515625 32.199219 34.828125 32.222656 34.984375 32.328125 C 35.144531 32.433594 35.222656 32.589844 35.300781 32.902344 C 35.589844 33.871094 36.03125 38.242188 35.640625 39.265625 C 35.484375 39.65625 35.195312 39.894531 34.960938 39.972656 C 34.804688 39.996094 34.59375 39.917969 34.460938 39.816406 C 34.332031 39.683594 34.226562 39.5 34.175781 39.1875 C 34.070312 38.375 34.382812 35.207031 34.855469 34.527344 C 35.039062 34.238281 35.351562 34.109375 35.5625 34.132812 C 35.796875 34.132812 36.191406 34.65625 36.214844 34.65625 C 36.214844 34.65625 35.851562 34.265625 35.824219 34.292969 C 35.746094 34.34375 36.191406 35 36.320312 35.546875 C 36.53125 36.464844 36.820312 38.792969 36.636719 39.421875 C 36.582031 39.632812 36.476562 39.734375 36.347656 39.816406 C 36.191406 39.917969 35.875 39.972656 35.691406 39.867188 C 35.484375 39.789062 35.351562 39.554688 35.246094 39.1875 C 35.039062 38.269531 35.429688 34.527344 35.953125 33.714844 C 36.164062 33.375 36.53125 33.164062 36.765625 33.21875 C 37 33.246094 37.210938 33.453125 37.367188 33.792969 C 37.707031 34.605469 37.761719 37.824219 37.523438 38.636719 C 37.445312 38.925781 37.34375 39.109375 37.160156 39.1875 C 36.976562 39.292969 36.53125 39.265625 36.347656 39.132812 C 36.191406 39.003906 36.136719 38.820312 36.113281 38.507812 C 36.007812 37.640625 36.503906 34.34375 37 33.53125 C 37.210938 33.191406 37.523438 32.984375 37.785156 32.984375 C 37.996094 32.984375 38.390625 33.507812 38.414062 33.507812 C 38.414062 33.507812 38.230469 33.296875 38.207031 33.296875 C 38.046875 33.375 38.675781 35.835938 38.574219 36.515625 C 38.519531 36.882812 38.414062 37.222656 38.230469 37.300781 C 38.074219 37.378906 37.683594 37.355469 37.578125 37.171875 C 37.316406 36.777344 38.074219 35.128906 38.179688 34.238281 C 38.257812 33.507812 38.074219 32.640625 38.257812 32.199219 C 38.363281 31.960938 38.519531 31.804688 38.703125 31.726562 C 38.886719 31.671875 39.199219 31.726562 39.359375 31.832031 C 39.515625 31.960938 39.566406 32.117188 39.644531 32.433594 C 39.882812 33.402344 40.222656 37.824219 39.75 38.769531 C 39.566406 39.109375 39.226562 39.316406 38.964844 39.316406 C 38.78125 39.316406 38.519531 39.109375 38.414062 38.949219 C 38.335938 38.792969 38.335938 38.6875 38.363281 38.425781 C 38.390625 37.617188 38.964844 34.082031 39.488281 33.21875 C 39.699219 32.851562 40.011719 32.5625 40.222656 32.617188 C 40.484375 32.640625 40.769531 33.164062 40.929688 33.664062 C 41.214844 34.554688 41.191406 37.09375 41.03125 37.800781 C 40.980469 38.035156 40.953125 38.140625 40.824219 38.242188 C 40.691406 38.375 40.378906 38.507812 40.195312 38.425781 C 39.960938 38.347656 39.699219 38.0625 39.621094 37.667969 C 39.410156 36.804688 40.0625 33.769531 40.5625 32.929688 C 40.769531 32.5625 41.058594 32.277344 41.320312 32.277344 C 41.582031 32.277344 41.898438 32.5625 42.078125 32.929688 C 42.472656 33.714844 42.734375 36.570312 42.394531 37.328125 C 42.238281 37.667969 41.871094 37.902344 41.609375 37.878906 C 41.375 37.851562 41.085938 37.5625 40.980469 37.171875 C 40.691406 36.226562 41.453125 32.171875 42.054688 31.59375 C 42.289062 31.359375 42.683594 31.386719 42.890625 31.492188 C 43.074219 31.570312 43.179688 31.726562 43.257812 32.039062 C 43.546875 32.929688 43.652344 36.910156 43.128906 37.695312 C 42.917969 38.035156 42.472656 38.164062 42.238281 38.113281 C 42 38.035156 41.792969 37.667969 41.738281 37.277344 C 41.582031 36.410156 42.160156 33.480469 42.683594 32.929688 C 42.917969 32.695312 43.285156 32.667969 43.492188 32.746094 C 43.703125 32.824219 43.859375 33.085938 43.964844 33.425781 C 44.226562 34.238281 44.253906 37.144531 43.992188 37.878906 C 43.886719 38.164062 43.730469 38.324219 43.570312 38.402344 C 43.414062 38.453125 43.207031 38.480469 43.046875 38.402344 C 42.867188 38.296875 42.65625 38.085938 42.550781 37.746094 C 42.367188 36.910156 42.734375 33.792969 43.207031 33.113281 C 43.414062 32.824219 43.730469 32.695312 43.9375 32.746094 C 44.199219 32.773438 44.4375 33.0625 44.59375 33.453125 C 44.90625 34.316406 45.039062 37.5625 44.617188 38.21875 C 44.4375 38.507812 44.070312 38.609375 43.859375 38.558594 C 43.625 38.507812 43.335938 38.191406 43.257812 37.800781 C 43.101562 37.015625 43.859375 34.421875 44.332031 33.769531 C 44.539062 33.480469 44.828125 33.324219 45.039062 33.347656 C 45.273438 33.347656 45.5625 33.53125 45.691406 33.871094 C 46.058594 34.605469 46.109375 37.71875 45.691406 38.425781 C 45.484375 38.742188 45.0625 38.925781 44.828125 38.871094 C 44.59375 38.820312 44.332031 38.480469 44.277344 38.085938 C 44.148438 37.25 45.0625 34.65625 45.457031 33.949219 C 45.613281 33.664062 45.71875 33.507812 45.902344 33.453125 C 46.109375 33.375 46.503906 33.402344 46.714844 33.636719 C 47.238281 34.292969 47.316406 38.242188 46.949219 39.109375 C 46.792969 39.421875 46.53125 39.578125 46.320312 39.632812 C 46.136719 39.683594 45.953125 39.605469 45.824219 39.5 C 45.667969 39.394531 45.535156 39.210938 45.507812 38.898438 C 45.378906 38.0625 45.929688 34.789062 46.476562 34.132812 C 46.6875 33.847656 47.027344 33.742188 47.238281 33.792969 C 47.472656 33.847656 47.707031 34.082031 47.839844 34.421875 C 48.101562 35.128906 47.890625 37.695312 47.707031 38.347656 C 47.65625 38.585938 47.601562 38.6875 47.445312 38.792969 C 47.289062 38.925781 46.976562 39.03125 46.792969 38.949219 C 46.554688 38.871094 46.292969 38.53125 46.242188 38.140625 C 46.136719 37.355469 46.898438 35 47.394531 34.421875 C 47.628906 34.160156 47.917969 34.03125 48.152344 34.054688 C 48.386719 34.082031 48.648438 34.316406 48.78125 34.632812 C 49.015625 35.285156 48.675781 37.539062 48.363281 38.21875 C 48.207031 38.53125 47.996094 38.742188 47.761719 38.792969 C 47.578125 38.847656 47.261719 38.742188 47.105469 38.585938 C 46.976562 38.453125 46.921875 38.242188 46.921875 37.929688 C 46.921875 37.09375 47.839844 34.003906 48.363281 33.269531 C 48.597656 32.957031 48.808594 32.773438 49.042969 32.773438 C 49.277344 32.773438 49.617188 32.929688 49.75 33.21875 C 50.0625 34.003906 49.015625 37.800781 48.625 38.507812 C 48.46875 38.742188 48.363281 38.820312 48.207031 38.871094 C 48.023438 38.925781 47.683594 38.898438 47.5 38.769531 C 47.316406 38.636719 47.160156 38.296875 47.210938 37.957031 C 47.261719 37.300781 48.386719 35.757812 48.9375 35.234375 C 49.277344 34.945312 49.617188 34.738281 49.90625 34.738281 C 50.117188 34.761719 50.351562 34.917969 50.484375 35.15625 C 50.691406 35.496094 50.796875 36.359375 50.691406 36.726562 C 50.640625 37.015625 50.457031 37.222656 50.246094 37.328125 C 50.039062 37.457031 49.566406 37.617188 49.410156 37.457031 C 49.148438 37.171875 50.011719 35.417969 50.117188 34.605469 C 50.167969 34.003906 49.960938 33.347656 50.0625 33.007812 C 50.117188 32.800781 50.222656 32.640625 50.351562 32.539062 C 50.535156 32.433594 50.875 32.355469 51.058594 32.433594 C 51.292969 32.511719 51.503906 32.800781 51.582031 33.140625 C 51.738281 33.664062 51.453125 34.945312 51.371094 35.496094 C 51.347656 35.808594 51.425781 36.070312 51.269531 36.203125 C 51.085938 36.386719 50.351562 36.492188 50.195312 36.332031 C 49.984375 36.125 50.222656 35.078125 50.457031 34.816406 C 50.640625 34.605469 51.058594 34.449219 51.191406 34.578125 C 51.476562 34.839844 50.71875 37.902344 50.273438 38.585938 C 50.089844 38.871094 49.855469 39.082031 49.617188 39.082031 C 49.355469 39.082031 48.964844 38.792969 48.832031 38.480469 C 48.648438 37.957031 49.382812 36.777344 49.460938 35.886719 C 49.515625 35 49.121094 33.664062 49.199219 33.140625 C 49.226562 32.902344 49.277344 32.773438 49.382812 32.640625 C 49.539062 32.511719 49.855469 32.378906 50.039062 32.433594 C 50.273438 32.484375 50.535156 32.667969 50.664062 33.007812 C 50.925781 33.792969 50.402344 36.332031 50.039062 37.824219 C 49.644531 39.265625 49.042969 41.386719 48.441406 41.855469 C 48.152344 42.066406 47.707031 42.066406 47.550781 41.933594 C 47.367188 41.804688 47.367188 41.046875 47.367188 41.046875 " clip-rule="nonzero"/></clipPath><clipPath id="df210e831f"><path d="M 20.085938 29.699219 L 51.496094 29.699219 L 51.496094 42 L 20.085938 42 Z M 20.085938 29.699219 " clip-rule="nonzero"/></clipPath></defs><g clip-path="url(#51a0818f8d)"><g clip-path="url(#646e4430df)"><path fill="#00c697" d="M 19.59375 36.894531 C 20.449219 37.503906 21.878906 38.519531 24.34375 38.519531 C 26.882812 38.519531 28.332031 37.5 29.203125 36.890625 C 29.714844 36.527344 29.714844 36.527344 30.015625 36.527344 C 30.390625 36.527344 30.390625 36.527344 30.941406 36.917969 C 31.796875 37.515625 33.226562 38.519531 35.6875 38.519531 C 38.226562 38.519531 39.679688 37.5 40.546875 36.890625 C 41.058594 36.527344 41.058594 36.527344 41.359375 36.527344 C 41.734375 36.527344 41.734375 36.527344 42.285156 36.914062 C 43.140625 37.515625 44.570312 38.519531 47.03125 38.519531 C 49.496094 38.519531 50.929688 37.503906 51.785156 36.894531 C 52.289062 36.535156 52.289062 36.535156 52.53125 36.527344 L 52.710938 36.519531 C 52.6875 37 52.648438 37.480469 52.601562 37.988281 C 51.707031 46.144531 44.839844 52.519531 36.683594 52.914062 C 27.113281 53.402344 19.191406 45.933594 18.898438 36.53125 C 19.082031 36.542969 19.136719 36.570312 19.59375 36.894531 Z M 19.59375 36.894531 " fill-opacity="1" fill-rule="nonzero"/></g></g><g clip-path="url(#8ab04b8aa5)"><g clip-path="url(#24dd334836)"><path fill="#00c697" d="M 22.453125 27.140625 L 48.722656 27.140625 C 49.71875 27.140625 50.414062 27.539062 50.714844 28.234375 C 51.527344 29.761719 52.097656 31.40625 52.40625 33.109375 C 49.820312 33.203125 49.71875 35.097656 47.03125 35.097656 C 44.246094 35.097656 44.246094 33.109375 41.359375 33.109375 C 38.574219 33.109375 38.574219 35.097656 35.6875 35.097656 C 32.902344 35.097656 32.902344 33.109375 30.015625 33.109375 C 27.230469 33.109375 27.230469 35.097656 24.34375 35.097656 C 21.660156 35.097656 21.558594 33.207031 18.972656 33.109375 C 19.28125 31.40625 19.851562 29.761719 20.664062 28.234375 C 21.0625 27.539062 21.660156 27.140625 22.453125 27.140625 Z M 22.453125 27.140625 " fill-opacity="1" fill-rule="nonzero"/></g></g><g clip-path="url(#81fb817a97)"><g clip-path="url(#35f3de04d3)"><path fill="#ffcc00" d="M 7.25 1.28125 C 10.726562 0.03125 14.597656 1.136719 16.882812 4.042969 L 35.035156 27.140625 L 30.679688 27.140625 L 14.191406 6.15625 C 12.820312 4.414062 10.496094 3.746094 8.414062 4.5 L 2.183594 6.75 L 1.019531 3.53125 Z M 7.25 1.28125 " fill-opacity="1" fill-rule="nonzero"/></g></g><g clip-path="url(#70cacfe3fc)"><g clip-path="url(#e823caff16)"><path fill="#ff7319" d="M 11.5 10.113281 L 20.234375 21.226562 C 16.574219 25.082031 14.3125 30.28125 14.3125 36.003906 C 14.3125 47.855469 23.953125 57.5 35.804688 57.5 C 47.65625 57.5 57.300781 47.855469 57.300781 36.003906 C 57.300781 24.148438 47.65625 14.507812 35.804688 14.507812 C 34.257812 14.507812 32.75 14.679688 31.289062 14.992188 L 22.058594 3.242188 C 26.289062 1.46875 30.929688 0.484375 35.804688 0.484375 C 55.421875 0.484375 71.324219 16.386719 71.324219 36.003906 C 71.324219 55.621094 35.804688 91.128906 35.804688 91.128906 C 35.804688 91.128906 0.285156 55.621094 0.285156 36.003906 C 0.285156 25.792969 4.601562 16.59375 11.5 10.113281 Z M 11.5 10.113281 " fill-opacity="1" fill-rule="nonzero"/></g></g><g clip-path="url(#97775bee7e)"><g clip-path="url(#43fef2d409)"><path fill="#00c697" d="M 17.578125 26.152344 L 23.652344 26.152344 L 23.652344 43.300781 L 17.578125 43.300781 Z M 17.578125 26.152344 " fill-opacity="1" fill-rule="nonzero"/></g></g><g clip-path="url(#79a82dc95b)"><g clip-path="url(#c6d6f950e2)"><path fill="#00c697" d="M 49.304688 30.46875 L 53.964844 30.46875 L 53.964844 41.152344 L 49.304688 41.152344 Z M 49.304688 30.46875 " fill-opacity="1" fill-rule="nonzero"/></g></g><g clip-path="url(#b3a347b913)"><g clip-path="url(#d5c56d8569)"><path fill="#00c697" d="M 18.652344 30.101562 L 52.863281 30.101562 L 52.863281 42.980469 L 18.652344 42.980469 Z M 18.652344 30.101562 " fill-opacity="1" fill-rule="nonzero"/></g></g><g clip-path="url(#df210e831f)"><path fill="#ffffff" d="M 50.714844 34.222656 L 49.730469 34.222656 C 49.027344 31.621094 46.652344 29.699219 43.832031 29.699219 C 41.105469 29.699219 38.792969 31.492188 38.007812 33.964844 C 37.902344 33.90625 37.792969 33.851562 37.683594 33.800781 C 37.121094 33.539062 36.519531 33.386719 35.898438 33.347656 C 35.878906 33.34375 35.859375 33.34375 35.839844 33.339844 C 35.824219 33.339844 35.808594 33.335938 35.789062 33.335938 C 35.78125 33.335938 35.777344 33.335938 35.769531 33.335938 C 35.761719 33.335938 35.753906 33.335938 35.746094 33.335938 C 35.726562 33.335938 35.710938 33.339844 35.695312 33.339844 C 35.675781 33.34375 35.65625 33.34375 35.636719 33.347656 C 35.015625 33.386719 34.414062 33.539062 33.851562 33.800781 C 33.742188 33.851562 33.632812 33.90625 33.527344 33.964844 C 32.742188 31.492188 30.429688 29.699219 27.703125 29.699219 C 24.8125 29.699219 22.390625 31.71875 21.757812 34.417969 L 20.796875 34.417969 C 20.414062 34.417969 20.101562 34.730469 20.101562 35.113281 C 20.101562 35.5 20.414062 35.808594 20.796875 35.808594 L 21.589844 35.808594 C 21.589844 39.179688 24.332031 41.921875 27.703125 41.921875 C 31.074219 41.921875 33.816406 39.179688 33.816406 35.808594 C 33.816406 35.691406 33.804688 35.574219 33.796875 35.457031 C 33.996094 35.304688 34.207031 35.167969 34.4375 35.0625 C 34.855469 34.867188 35.304688 34.757812 35.769531 34.730469 C 36.234375 34.757812 36.679688 34.867188 37.097656 35.0625 C 37.328125 35.167969 37.539062 35.304688 37.738281 35.457031 C 37.734375 35.574219 37.722656 35.691406 37.722656 35.808594 C 37.722656 39.179688 40.464844 41.921875 43.832031 41.921875 C 47.203125 41.921875 49.945312 39.179688 49.945312 35.808594 C 49.945312 35.742188 49.9375 35.679688 49.9375 35.613281 L 50.714844 35.613281 C 51.101562 35.613281 51.414062 35.304688 51.414062 34.917969 C 51.414062 34.535156 51.101562 34.222656 50.714844 34.222656 Z M 27.703125 40.53125 C 25.097656 40.53125 22.980469 38.414062 22.980469 35.808594 C 22.980469 33.207031 25.097656 31.089844 27.703125 31.089844 C 30.109375 31.089844 32.097656 32.902344 32.382812 35.234375 C 32.40625 35.425781 32.421875 35.613281 32.421875 35.808594 C 32.421875 38.414062 30.304688 40.53125 27.703125 40.53125 Z M 43.832031 40.53125 C 41.230469 40.53125 39.113281 38.414062 39.113281 35.808594 C 39.113281 35.613281 39.128906 35.425781 39.152344 35.234375 C 39.4375 32.902344 41.425781 31.089844 43.832031 31.089844 C 46.4375 31.089844 48.554688 33.207031 48.554688 35.808594 C 48.554688 38.414062 46.4375 40.53125 43.832031 40.53125 Z M 43.832031 40.53125 " fill-opacity="1" fill-rule="nonzero"/></g></svg>